# xmcd CD database file
#
# Track frame offsets:
#	150
#	21673
#	43894
#	62804
#	96571
#	119489
#	132968
#	153024
#	178162
#	200312
#	217038
#	234015
#	256360
#	270318
#	288623
#	304448
#
# Disc length: 4318 seconds
#
# Revision: 0
# Processed by: cddbd v1.5.1PL0 Copyright (c) Steve Scherf et al.
# Submitted via: Feurio! 1.68 - http://www.feurio.com
#
DISCID=f510dc10
DTITLE=Eagles - The Complete Greatest Hits CD2 (Remastered)
DYEAR=1900
DGENRE=
TTITLE0=Life In The Fast Lane
TTITLE1=Wasted Time
TTITLE2=Viktim Of Love
TTITLE3=The Last Resort
TTITLE4=New Kid In Town
TTITLE5=Please Come Home For Christmas
TTITLE6=Heartache Tonight
TTITLE7=The Sad Cafe
TTITLE8=I Can't Tell You Why
TTITLE9=The Long Run
TTITLE10=In The City
TTITLE11=Those Shoes
TTITLE12=Seven Bridges Road (Live)
TTITLE13=Love Will Keep Us Alive
TTITLE14=Get Over It
TTITLE15=Hole In The World
EXTD=
EXTT0=
EXTT1=
EXTT2=
EXTT3=
EXTT4=
EXTT5=
EXTT6=
EXTT7=
EXTT8=
EXTT9=
EXTT10=
EXTT11=
EXTT12=
EXTT13=
EXTT14=
EXTT15=
PLAYORDER=
